<mxfile host="app.diagrams.net" modified="2023-04-11T18:59:22.851Z" agent="Mozilla/5.0 (Windows NT 10.0; Win64; x64) AppleWebKit/537.36 (KHTML, like Gecko) Chrome/112.0.0.0 Safari/537.36" etag="mCx_kdWJeAu0QHUOuiRJ" version="21.1.5" type="github">
  <diagram name="Page-1" id="welwAuUpqZPMjJ7m0QYO">
    <mxGraphModel dx="2072" dy="933" grid="1" gridSize="10" guides="1" tooltips="1" connect="1" arrows="1" fold="1" page="1" pageScale="1" pageWidth="850" pageHeight="1100" math="0" shadow="0">
      <root>
        <mxCell id="0" />
        <mxCell id="1" parent="0" />
        <mxCell id="qYcrkfFkZDpFq10aM7kx-1" value="COMPRADOR&lt;br style=&quot;color: rgb(255, 255, 255); font-size: 12px;&quot;&gt;&lt;div style=&quot;color: rgb(255, 255, 255); font-size: 12px; text-align: left; line-height: 12px;&quot;&gt;&lt;span style=&quot;background-color: initial;&quot;&gt;# identificacion&lt;/span&gt;&lt;/div&gt;&lt;div style=&quot;color: rgb(255, 255, 255); font-size: 12px; text-align: left; line-height: 12px;&quot;&gt;&lt;span style=&quot;background-color: initial;&quot;&gt;* nombre&lt;/span&gt;&lt;/div&gt;&lt;div style=&quot;color: rgb(255, 255, 255); font-size: 12px; text-align: left; line-height: 12px;&quot;&gt;&lt;span style=&quot;background-color: initial;&quot;&gt;* cantidad&lt;/span&gt;&lt;/div&gt;&lt;div style=&quot;color: rgb(255, 255, 255); font-size: 12px; text-align: left; line-height: 12px;&quot;&gt;&lt;span style=&quot;background-color: initial;&quot;&gt;&lt;br&gt;&lt;/span&gt;&lt;/div&gt;" style="rounded=1;whiteSpace=wrap;html=1;fontSize=16;direction=east;" parent="1" vertex="1">
          <mxGeometry x="30" y="103.75" width="200" height="192.5" as="geometry" />
        </mxCell>
        <mxCell id="qYcrkfFkZDpFq10aM7kx-2" value="" style="edgeStyle=none;curved=1;rounded=0;orthogonalLoop=1;jettySize=auto;html=1;fontSize=12;startSize=8;endSize=8;endArrow=none;endFill=0;" parent="1" source="qYcrkfFkZDpFq10aM7kx-4" edge="1">
          <mxGeometry relative="1" as="geometry">
            <mxPoint x="530" y="340" as="targetPoint" />
          </mxGeometry>
        </mxCell>
        <mxCell id="qYcrkfFkZDpFq10aM7kx-4" value="VENTA&lt;br&gt;# Identificacion&lt;br&gt;&lt;div style=&quot;text-align: left;&quot;&gt;&lt;span style=&quot;background-color: initial;&quot;&gt;* precio&lt;/span&gt;&lt;/div&gt;&lt;div style=&quot;text-align: left;&quot;&gt;&lt;span style=&quot;background-color: initial;&quot;&gt;* cantidad&lt;/span&gt;&lt;/div&gt;" style="rounded=1;whiteSpace=wrap;html=1;" parent="1" vertex="1">
          <mxGeometry x="350" y="300" width="120" height="80" as="geometry" />
        </mxCell>
        <mxCell id="qYcrkfFkZDpFq10aM7kx-5" style="edgeStyle=none;curved=1;rounded=0;orthogonalLoop=1;jettySize=auto;html=1;fontSize=12;startSize=8;endSize=8;" parent="1" source="qYcrkfFkZDpFq10aM7kx-7" target="qYcrkfFkZDpFq10aM7kx-12" edge="1">
          <mxGeometry relative="1" as="geometry" />
        </mxCell>
        <mxCell id="qYcrkfFkZDpFq10aM7kx-6" value="" style="edgeStyle=none;curved=1;rounded=0;orthogonalLoop=1;jettySize=auto;html=1;fontSize=12;startSize=8;endSize=8;endArrow=none;endFill=0;startArrow=ERone;startFill=0;" parent="1" source="qYcrkfFkZDpFq10aM7kx-7" target="qYcrkfFkZDpFq10aM7kx-10" edge="1">
          <mxGeometry relative="1" as="geometry" />
        </mxCell>
        <mxCell id="qYcrkfFkZDpFq10aM7kx-7" value="PRODUCTO&lt;br&gt;&lt;div style=&quot;text-align: left;&quot;&gt;&lt;span style=&quot;background-color: initial;&quot;&gt;# codigo&lt;/span&gt;&lt;/div&gt;&lt;div style=&quot;text-align: left;&quot;&gt;&lt;span style=&quot;background-color: initial;&quot;&gt;* nombre&amp;nbsp;&lt;/span&gt;&lt;/div&gt;&lt;div style=&quot;text-align: left;&quot;&gt;&lt;span style=&quot;background-color: initial;&quot;&gt;* precio&lt;/span&gt;&lt;/div&gt;" style="rounded=1;whiteSpace=wrap;html=1;align=center;" parent="1" vertex="1">
          <mxGeometry x="600" y="310" width="120" height="60" as="geometry" />
        </mxCell>
        <mxCell id="qYcrkfFkZDpFq10aM7kx-10" value="LINEA INVENTARIO&lt;br&gt;* cantidad" style="rounded=1;whiteSpace=wrap;html=1;" parent="1" vertex="1">
          <mxGeometry x="870" y="400" width="120" height="60" as="geometry" />
        </mxCell>
        <mxCell id="qYcrkfFkZDpFq10aM7kx-11" value="" style="edgeStyle=none;curved=1;rounded=0;orthogonalLoop=1;jettySize=auto;html=1;fontSize=12;startSize=8;endSize=8;endArrow=none;endFill=0;startArrow=ERone;startFill=0;" parent="1" source="qYcrkfFkZDpFq10aM7kx-12" target="qYcrkfFkZDpFq10aM7kx-10" edge="1">
          <mxGeometry relative="1" as="geometry" />
        </mxCell>
        <mxCell id="qYcrkfFkZDpFq10aM7kx-12" value="PROVEEDOR&lt;br&gt;# NIT&lt;br&gt;* nombre&lt;br&gt;* direccion" style="rounded=1;whiteSpace=wrap;html=1;" parent="1" vertex="1">
          <mxGeometry x="600" y="480" width="120" height="70" as="geometry" />
        </mxCell>
        <mxCell id="qYcrkfFkZDpFq10aM7kx-13" value="ENVIO&lt;br&gt;&lt;div style=&quot;text-align: left;&quot;&gt;&lt;span style=&quot;background-color: initial;&quot;&gt;# codigo&lt;/span&gt;&lt;/div&gt;&lt;div style=&quot;text-align: left;&quot;&gt;&lt;span style=&quot;background-color: initial;&quot;&gt;* fecha_entrega&lt;/span&gt;&lt;/div&gt;&lt;div style=&quot;text-align: left;&quot;&gt;&lt;span style=&quot;background-color: initial;&quot;&gt;* direccion_entrega&lt;/span&gt;&lt;/div&gt;" style="rounded=1;whiteSpace=wrap;html=1;" parent="1" vertex="1">
          <mxGeometry x="70" y="560" width="120" height="80" as="geometry" />
        </mxCell>
        <mxCell id="qYcrkfFkZDpFq10aM7kx-15" style="edgeStyle=none;curved=1;rounded=0;orthogonalLoop=1;jettySize=auto;html=1;entryX=0.5;entryY=0;entryDx=0;entryDy=0;fontSize=12;startSize=8;endSize=8;dashed=1;endArrow=ERone;endFill=0;startArrow=ERone;startFill=0;" parent="1" source="qYcrkfFkZDpFq10aM7kx-17" target="qYcrkfFkZDpFq10aM7kx-13" edge="1">
          <mxGeometry relative="1" as="geometry" />
        </mxCell>
        <mxCell id="qYcrkfFkZDpFq10aM7kx-16" value="" style="edgeStyle=none;curved=1;rounded=0;orthogonalLoop=1;jettySize=auto;html=1;fontSize=12;startSize=8;endSize=8;endArrow=ERone;endFill=0;" parent="1" source="qYcrkfFkZDpFq10aM7kx-17" target="qYcrkfFkZDpFq10aM7kx-20" edge="1">
          <mxGeometry relative="1" as="geometry" />
        </mxCell>
        <mxCell id="sSpzTHMyrxtLYqOQlPgQ-4" value="" style="edgeStyle=none;curved=1;rounded=0;orthogonalLoop=1;jettySize=auto;html=1;fontSize=12;startSize=8;endSize=8;endArrow=ERone;endFill=0;" edge="1" parent="1" source="qYcrkfFkZDpFq10aM7kx-17" target="sSpzTHMyrxtLYqOQlPgQ-1">
          <mxGeometry relative="1" as="geometry" />
        </mxCell>
        <mxCell id="qYcrkfFkZDpFq10aM7kx-17" value="FACTURA&lt;br&gt;# codigo&amp;nbsp;&lt;br&gt;* ventas&lt;br&gt;* fecha" style="rounded=1;whiteSpace=wrap;html=1;" parent="1" vertex="1">
          <mxGeometry x="70" y="400" width="120" height="60" as="geometry" />
        </mxCell>
        <mxCell id="qYcrkfFkZDpFq10aM7kx-18" value="Persona&lt;br&gt;* puntos" style="rounded=1;whiteSpace=wrap;html=1;fontSize=16;" parent="1" vertex="1">
          <mxGeometry x="135" y="230" width="90" height="50" as="geometry" />
        </mxCell>
        <mxCell id="qYcrkfFkZDpFq10aM7kx-19" value="EMPRESA&lt;br&gt;* descuento" style="rounded=1;whiteSpace=wrap;html=1;fontSize=16;" parent="1" vertex="1">
          <mxGeometry x="40" y="230" width="90" height="50" as="geometry" />
        </mxCell>
        <mxCell id="qYcrkfFkZDpFq10aM7kx-20" value="EMPLEADO&lt;br&gt;# identificacion&lt;br&gt;* nombre&lt;br&gt;* fecha_nacimiento&lt;br&gt;* tiempo_ empresa&lt;br&gt;* calificacion" style="rounded=1;whiteSpace=wrap;html=1;" parent="1" vertex="1">
          <mxGeometry x="365" y="490" width="120" height="120" as="geometry" />
        </mxCell>
        <mxCell id="qYcrkfFkZDpFq10aM7kx-21" value="compuesta por" style="text;html=1;align=center;verticalAlign=middle;resizable=0;points=[];autosize=1;strokeColor=none;fillColor=none;fontSize=8;" parent="1" vertex="1">
          <mxGeometry x="460" y="310" width="80" height="20" as="geometry" />
        </mxCell>
        <mxCell id="qYcrkfFkZDpFq10aM7kx-22" value="parte de" style="text;html=1;align=center;verticalAlign=middle;resizable=0;points=[];autosize=1;strokeColor=none;fillColor=none;fontSize=8;" parent="1" vertex="1">
          <mxGeometry x="550" y="310" width="50" height="20" as="geometry" />
        </mxCell>
        <mxCell id="qYcrkfFkZDpFq10aM7kx-25" style="edgeStyle=none;curved=1;rounded=0;orthogonalLoop=1;jettySize=auto;html=1;fontSize=12;startSize=8;endSize=8;endArrow=none;endFill=0;" parent="1" edge="1">
          <mxGeometry relative="1" as="geometry">
            <mxPoint x="130" y="510" as="sourcePoint" />
            <mxPoint x="130" y="550" as="targetPoint" />
          </mxGeometry>
        </mxCell>
        <mxCell id="qYcrkfFkZDpFq10aM7kx-26" value="asociada a" style="text;html=1;align=center;verticalAlign=middle;resizable=0;points=[];autosize=1;strokeColor=none;fillColor=none;fontSize=8;" parent="1" vertex="1">
          <mxGeometry x="125" y="460" width="60" height="20" as="geometry" />
        </mxCell>
        <mxCell id="qYcrkfFkZDpFq10aM7kx-27" value="presente en" style="text;html=1;align=center;verticalAlign=middle;resizable=0;points=[];autosize=1;strokeColor=none;fillColor=none;fontSize=8;" parent="1" vertex="1">
          <mxGeometry x="120" y="540" width="70" height="20" as="geometry" />
        </mxCell>
        <mxCell id="qYcrkfFkZDpFq10aM7kx-28" value="dispuesto por" style="text;html=1;align=center;verticalAlign=middle;resizable=0;points=[];autosize=1;strokeColor=none;fillColor=none;fontSize=8;" parent="1" vertex="1">
          <mxGeometry x="655" y="370" width="70" height="20" as="geometry" />
        </mxCell>
        <mxCell id="qYcrkfFkZDpFq10aM7kx-29" value="suministrador de" style="text;html=1;align=center;verticalAlign=middle;resizable=0;points=[];autosize=1;strokeColor=none;fillColor=none;fontSize=8;" parent="1" vertex="1">
          <mxGeometry x="655" y="460" width="80" height="20" as="geometry" />
        </mxCell>
        <mxCell id="qYcrkfFkZDpFq10aM7kx-30" value="formar parte de" style="text;html=1;align=center;verticalAlign=middle;resizable=0;points=[];autosize=1;strokeColor=none;fillColor=none;fontSize=8;rotation=20;" parent="1" vertex="1">
          <mxGeometry x="710" y="350" width="80" height="20" as="geometry" />
        </mxCell>
        <mxCell id="sSpzTHMyrxtLYqOQlPgQ-1" value="ENCUESTA&lt;br&gt;# identificacion&lt;br&gt;* pregunta1&lt;br&gt;* pregunta2&lt;br&gt;*pregunta3&lt;br&gt;" style="rounded=1;whiteSpace=wrap;html=1;" vertex="1" parent="1">
          <mxGeometry x="-170" y="370" width="120" height="120" as="geometry" />
        </mxCell>
        <mxCell id="sSpzTHMyrxtLYqOQlPgQ-5" value="" style="edgeStyle=none;curved=1;rounded=0;orthogonalLoop=1;jettySize=auto;html=1;fontSize=12;startSize=8;endSize=8;endArrow=ERone;endFill=0;dashed=1;" edge="1" parent="1">
          <mxGeometry relative="1" as="geometry">
            <mxPoint x="530" y="339.89" as="sourcePoint" />
            <mxPoint x="600" y="339.89" as="targetPoint" />
          </mxGeometry>
        </mxCell>
        <mxCell id="sSpzTHMyrxtLYqOQlPgQ-7" value="" style="edgeStyle=none;curved=1;rounded=0;orthogonalLoop=1;jettySize=auto;html=1;fontSize=12;startSize=8;endSize=8;endArrow=ERone;endFill=0;exitX=0;exitY=0.5;exitDx=0;exitDy=0;" edge="1" parent="1" source="qYcrkfFkZDpFq10aM7kx-4">
          <mxGeometry relative="1" as="geometry">
            <mxPoint x="240" y="429.74" as="sourcePoint" />
            <mxPoint x="190" y="429.74" as="targetPoint" />
          </mxGeometry>
        </mxCell>
        <mxCell id="sSpzTHMyrxtLYqOQlPgQ-8" value="responsable de" style="text;html=1;align=center;verticalAlign=middle;resizable=0;points=[];autosize=1;strokeColor=none;fillColor=none;fontSize=8;" vertex="1" parent="1">
          <mxGeometry x="80" y="300" width="80" height="20" as="geometry" />
        </mxCell>
        <mxCell id="sSpzTHMyrxtLYqOQlPgQ-9" value="asignada a" style="text;html=1;align=center;verticalAlign=middle;resizable=0;points=[];autosize=1;strokeColor=none;fillColor=none;fontSize=8;" vertex="1" parent="1">
          <mxGeometry x="80" y="380" width="60" height="20" as="geometry" />
        </mxCell>
        <mxCell id="sSpzTHMyrxtLYqOQlPgQ-10" style="edgeStyle=none;curved=1;rounded=0;orthogonalLoop=1;jettySize=auto;html=1;fontSize=12;startSize=8;endSize=8;endArrow=ERone;endFill=0;startArrow=ERmany;startFill=0;" edge="1" parent="1">
          <mxGeometry relative="1" as="geometry">
            <mxPoint x="179.81" y="340" as="targetPoint" />
            <mxPoint x="179.81" y="400" as="sourcePoint" />
            <Array as="points">
              <mxPoint x="179.81" y="370" />
              <mxPoint x="179.81" y="340" />
            </Array>
          </mxGeometry>
        </mxCell>
        <mxCell id="sSpzTHMyrxtLYqOQlPgQ-11" style="edgeStyle=none;curved=1;rounded=0;orthogonalLoop=1;jettySize=auto;html=1;fontSize=12;startSize=8;endSize=8;endArrow=ERone;endFill=0;startArrow=ERmany;startFill=0;" edge="1" parent="1">
          <mxGeometry relative="1" as="geometry">
            <mxPoint x="84.81" y="340" as="targetPoint" />
            <mxPoint x="84.81" y="400" as="sourcePoint" />
            <Array as="points">
              <mxPoint x="84.81" y="370" />
              <mxPoint x="85" y="300" />
            </Array>
          </mxGeometry>
        </mxCell>
        <mxCell id="sSpzTHMyrxtLYqOQlPgQ-13" value="responsable de" style="text;html=1;align=center;verticalAlign=middle;resizable=0;points=[];autosize=1;strokeColor=none;fillColor=none;fontSize=8;" vertex="1" parent="1">
          <mxGeometry x="180" y="300" width="80" height="20" as="geometry" />
        </mxCell>
        <mxCell id="sSpzTHMyrxtLYqOQlPgQ-14" value="asignada a" style="text;html=1;align=center;verticalAlign=middle;resizable=0;points=[];autosize=1;strokeColor=none;fillColor=none;fontSize=8;" vertex="1" parent="1">
          <mxGeometry x="180" y="380" width="60" height="20" as="geometry" />
        </mxCell>
      </root>
    </mxGraphModel>
  </diagram>
</mxfile>
